<svg xmlns="http://www.w3.org/2000/svg" viewBox="64 64 896 896" width="24" height="24" style="border-color: rgba(255,255,255,1);border-width: 0px;border-style: solid" filter="none">
    
    <g>
    <path d="M952 224h-52c-4.4 0-8 3.6-8 8v248h-92V304c0-4.4-3.6-8-8-8H448v432h344c4.4 0 8-3.6 8-8V548h92v244c0 4.4 3.6 8 8 8h52c4.4 0 8-3.6 8-8V232c0-4.4-3.6-8-8-8zm-728 80v176h-92V232c0-4.4-3.6-8-8-8H72c-4.4 0-8 3.6-8 8v560c0 4.4 3.6 8 8 8h52c4.4 0 8-3.6 8-8V548h92v172c0 4.4 3.6 8 8 8h152V296H232c-4.4 0-8 3.6-8 8z"></path>
    </g>
  </svg>