<?xml version="1.0" standalone="no"?><!DOCTYPE svg PUBLIC "-//W3C//DTD SVG 1.1//EN" "http://www.w3.org/Graphics/SVG/1.1/DTD/svg11.dtd"><svg t="1679571312658" class="icon" viewBox="0 0 1024 1024" version="1.1" xmlns="http://www.w3.org/2000/svg" p-id="11444" width="32" height="32" data-spm-anchor-id="a313x.7781069.0.i5" xmlns:xlink="http://www.w3.org/1999/xlink"><path d="M587.52 307.32c-4.52 0-9.04-1.72-12.5-5.18-6.9-6.9-6.9-18.1 0-24.98l66.48-66.48a17.66 17.66 0 0 1 24.98 0c6.9 6.9 6.9 18.1 0 24.98L600 302.14a17.532 17.532 0 0 1-12.48 5.18zM417.98 790.36c-17.42 0-34.82-6.62-48.06-19.86l-96-96c-12.82-12.82-19.86-29.94-19.84-48.2 0.04-18.22 7.14-35.34 19.98-48.18l248.2-248.2a17.66 17.66 0 0 1 24.98 0c6.9 6.9 6.9 18.1 0 24.98l-248.2 248.2c-6.18 6.18-9.6 14.46-9.62 23.28-0.02 8.78 3.34 17 9.48 23.12l96 96c12.76 12.74 33.56 12.68 46.4-0.14l367.44-367.44a17.66 17.66 0 0 1 24.98 0c6.9 6.9 6.9 18.1 0 24.98L466.3 770.34c-13.32 13.34-30.84 20.02-48.32 20.02z" p-id="11445"></path><path d="M250.26 852.94c-4.52 0-9.04-1.72-12.5-5.18l-41.1-41.1c-6.9-6.9-6.9-18.1 0-24.98l29.08-29.08c-6.56-20.64-9.12-50.42 10.48-70.02l35.38-35.38c6.62-6.62 18.36-6.62 24.98 0l100.64 100.64c6.9 6.9 6.9 18.1 0 24.98l-35.38 35.38c-19.6 19.62-49.4 17.04-70.02 10.5l-29.08 29.06a17.616 17.616 0 0 1-12.48 5.18z m-16.12-58.78l16.12 16.12 24.7-24.7a17.714 17.714 0 0 1 20.02-3.5c7.6 3.5 31.7 11.3 41.9 1.12l22.88-22.88-75.66-75.66-22.88 22.88c-10.18 10.18-2.38 34.3 1.16 41.94 3.1 6.72 1.72 14.74-3.52 19.96l-24.72 24.72zM858.4 436.38c-4.52 0-9.04-1.72-12.5-5.18L613.2 198.5c-6.9-6.9-6.9-18.1 0-24.98a17.66 17.66 0 0 1 24.98 0l232.7 232.7c6.9 6.9 6.9 18.1 0 24.98a17.532 17.532 0 0 1-12.48 5.18zM499.18 730.16c-4.52 0-9.04-1.72-12.5-5.18l-167.24-167.24c-6.9-6.9-6.9-18.1 0-24.98a17.66 17.66 0 0 1 24.98 0L511.66 700c6.9 6.9 6.9 18.1 0 24.98a17.532 17.532 0 0 1-12.48 5.18zM927.72 335.86c-3.08 0-6.18-0.8-9.04-2.5-2.38-1.42-59.06-35.48-115.6-92.04-56.56-56.54-90.62-113.22-92.04-115.62-5-8.38-2.24-19.22 6.12-24.22 8.38-5.02 19.22-2.26 24.22 6.12 0.32 0.54 33.38 55.44 86.68 108.74s108.18 86.34 108.72 86.68c8.38 5 11.12 15.86 6.12 24.22-3.3 5.56-9.16 8.62-15.18 8.62zM731.56 497.76c-4.52 0-9.04-1.72-12.5-5.18l-45.6-45.6c-6.9-6.9-6.9-18.1 0-24.98a17.66 17.66 0 0 1 24.98 0l45.6 45.6c6.9 6.9 6.9 18.1 0 24.98a17.532 17.532 0 0 1-12.48 5.18zM662.42 566.9c-4.52 0-9.04-1.72-12.5-5.18l-45.6-45.6c-6.9-6.9-6.9-18.1 0-24.98a17.66 17.66 0 0 1 24.98 0l45.6 45.6c6.9 6.9 6.9 18.1 0 24.98a17.532 17.532 0 0 1-12.48 5.18zM593.28 636.04c-4.52 0-9.04-1.72-12.5-5.18l-45.6-45.6c-6.9-6.9-6.9-18.1 0-24.98a17.66 17.66 0 0 1 24.98 0l45.6 45.6c6.9 6.9 6.9 18.1 0 24.98a17.532 17.532 0 0 1-12.48 5.18z" p-id="11446"></path><path d="M695.56 273.54c-4.52 0-9.04-1.72-12.5-5.18-6.9-6.9-6.9-18.1 0-24.98l73.56-73.56a17.66 17.66 0 0 1 24.98 0c6.9 6.9 6.9 18.1 0 24.98l-73.56 73.56a17.532 17.532 0 0 1-12.48 5.18zM788.54 366.52c-4.52 0-9.04-1.72-12.5-5.18-6.9-6.9-6.9-18.1 0-24.98l73.56-73.56a17.66 17.66 0 0 1 24.98 0c6.9 6.9 6.9 18.1 0 24.98l-73.56 73.56a17.532 17.532 0 0 1-12.48 5.18zM96.88 965.22c-4.52 0-9.04-1.72-12.5-5.18a17.66 17.66 0 0 1 0-24.98l132.82-132.84a17.66 17.66 0 0 1 24.98 0 17.66 17.66 0 0 1 0 24.98l-132.82 132.84a17.616 17.616 0 0 1-12.48 5.18z" p-id="11447"></path></svg>