<svg xmlns="http://www.w3.org/2000/svg" xmlns:xlink="http://www.w3.org/1999/xlink" fill="none" version="1.1" width="75.00000381469727" height="75.94324111938477" viewBox="0 0 75.00000381469727 75.94324111938477"><defs><filter id="master_svg0_25_9599" filterUnits="objectBoundingBox" color-interpolation-filters="sRGB" x="-12" y="-8" width="75.00000381469727" height="75.94324111938477"><feFlood flood-opacity="0" result="BackgroundImageFix"/><feColorMatrix in="SourceAlpha" type="matrix" values="0 0 0 0 0 0 0 0 0 0 0 0 0 0 0 0 0 0 127 0"/><feOffset dy="4" dx="0"/><feGaussianBlur stdDeviation="3"/><feColorMatrix type="matrix" values="0 0 0 0 0 0 0 0 0 0 0 0 0 0 0 0 0 0 0.15000000596046448 0"/><feBlend mode="normal" in2="BackgroundImageFix" result="effect1_dropShadow"/><feBlend mode="normal" in="SourceGraphic" in2="effect1_dropShadow" result="shape"/></filter></defs><g filter="url(#master_svg0_25_9599)"><path d="M34.0523,23.5586C34.0021,23.5976,33.9743,23.6589,33.9743,23.7202C33.9743,23.747999999999998,33.991,23.7703,34.0018,23.7927C34.0242,23.8428,34.0576,23.8873,34.1077,23.904C36.9908,25.0244,45.7293,28.0481,49.4185,36.110299999999995C43.6582,37.366299999999995,39.2312,42.4326,38.7158,48.6362C36.3163,46.2524,33.6002,43.5164,31.4064,41.3145L31.3977,41.3177C30.4944,40.4041,29.6691,39.5796,28.9999,38.9167C28.4367,38.2594,28.1077,37.435,28.0687,36.5715C27.6672,33.4353,27.1988,29.2573,26.8196,25.6309L26.8199,25.6308C26.451900000000002,22.0991,26.173099999999998,19.0855,26.1508,18.077199999999998C25.9055,8.00556641,11.563396000000001,9.49848,15.79018,22.154899999999998C16.16379,23.269,16.72141,25.124,17.345950000000002,27.2297C16.09687,27.4469,14.85895,27.6809,13.63218,27.9427C13.40913,26.8954,13.16377,25.7367,12.89054,24.4444C11.384958,17.38086,13.15262,11.02482,14.26229,8.0111374C14.78274,8.00185394,14.88884,8.000306702,14.90653,8.000050354L14.90966,8L24.333,8.0055687Q26.496499999999997,9.44835,28.0133,10.300650000000001C37.2475,15.18605,36.6062,20.717599999999997,34.0523,23.5586ZM40.9086,57.5634C40.7064,57.246,40.5162,56.9197,40.3386,56.5852C37.1393,53.2454,26.8916,46.5287,25.3641,45.3843C24.5723,44.7994,23.9812,44.2757,23.5184,43.7911L23.509700000000002,43.7932C22.2354,42.4634,21.91753,41.3776,21.23781,39.808C20.58539,38.3095,18.789839999999998,32.103899999999996,17.34002,27.2352C16.09653,27.4525,14.85303,27.6864,13.62626,27.9483C15.08165,34.8725,15.37161,36.8445,14.90321,38.415400000000005C14.65786,39.2565,13.62626,41.6129,12.867773,44.5041C11.9867294,47.8353,11.456987,51.8684,12.884502,55.1216C13.29714,56.0575,13.73766,56.9878,14.20607,57.8958L41.1002,57.8958C41.1124,57.8837,41.1198,57.8675,41.1233,57.8482L40.9086,57.5634ZM52.4687,38.1011C46.6599,38.1011,41.9375,43.0025,41.9375,49.0222C41.9375,55.0419,46.6599,59.9432,52.4687,59.9432C58.2775,59.9432,63,55.0419,63,49.0222C63,43.0025,58.2775,38.1011,52.4687,38.1011ZM57.2837,46.9108L58.6184,48.3284C58.8345,48.5508,58.8374,48.918,58.6248,49.1442C58.4123,49.3704,58.0666,49.3682,57.8567,49.1392L56.9029,48.1261L51.1884,54.2061C50.2809,55.1668,48.8622,55.3164,47.7945,54.5641L46.6148,55.817C46.4047,56.041,46.0632,56.041,45.8531,55.817C45.6422,55.5938,45.6422,55.2311,45.8531,55.008L47.0328,53.7551C46.3244,52.6211,46.4653,51.1143,47.3698,50.1504L53.0893,44.0758L52.1355,43.0627C51.9199,42.8398,51.9177,42.4726,52.1308,42.2469C52.3438,42.0212,52.6895,42.0242,52.8989,42.2537L54.2336,43.6713L57.2837,46.9108ZM58.4308,45.6985C58.2185,45.9225,57.8753,45.9212,57.6646,45.6956L55.3778,43.2739C55.1651,43.0505,55.1632,42.6863,55.3736,42.4605C55.5839,42.2346,55.9268,42.2326,56.1395,42.456L58.433,44.8848C58.6441,45.1101,58.6431,45.4745,58.4308,45.6985ZM53.447,48.4091C53.5848,48.5485,53.7735,48.6258,53.9696,48.6233C54.1609,48.6221,54.344,48.5451,54.4784,48.4091C54.764,48.1251,54.764,47.6635,54.4784,47.3795L53.447,46.3475C53.1568,46.0964,52.7215,46.1127,52.4508,46.3847C52.1802,46.6566,52.1668,47.0914,52.4202,47.3795L53.447,48.4091ZM51.52,51.0772C51.3308,51.0767,51.1497,51.0008,51.0168,50.8663L49.9945,49.8518C49.7138,49.5698,49.715,49.1139,49.9971,48.8332C50.2793,48.5526,50.7357,48.5535,51.0168,48.8351L52.0278,49.8518C52.3089,50.1316,52.3089,50.5864,52.0278,50.8663C51.8938,51.0019,51.7108,51.0779,51.52,51.0772ZM48.5589,53.319C48.6928,53.4553,48.8758,53.5317,49.0664,53.531C49.2555,53.5347,49.4382,53.4624,49.574,53.3302C49.855,53.049,49.855,52.5919,49.574,52.3107L48.5589,51.2889C48.278,51.0067,47.8225,51.0067,47.5416,51.2889C47.2607,51.571,47.2607,52.0285,47.5416,52.3107L48.5589,53.319Z" fill-rule="evenodd" fill="#FFFFFF" fill-opacity="1"/></g></svg>