<svg xmlns="http://www.w3.org/2000/svg" xmlns:xlink="http://www.w3.org/1999/xlink" fill="none" version="1.1" width="83.1985855102539" height="69.8530387878418" viewBox="0 0 83.1985855102539 69.8530387878418"><defs><filter id="master_svg0_25_1343" filterUnits="objectBoundingBox" color-interpolation-filters="sRGB" x="-12" y="-8" width="83.1985855102539" height="69.8530387878418"><feFlood flood-opacity="0" result="BackgroundImageFix"/><feColorMatrix in="SourceAlpha" type="matrix" values="0 0 0 0 0 0 0 0 0 0 0 0 0 0 0 0 0 0 127 0"/><feOffset dy="4" dx="0"/><feGaussianBlur stdDeviation="3"/><feColorMatrix type="matrix" values="0 0 0 0 0 0 0 0 0 0 0 0 0 0 0 0 0 0 0.15000000596046448 0"/><feBlend mode="normal" in2="BackgroundImageFix" result="effect1_dropShadow"/><feBlend mode="normal" in="SourceGraphic" in2="effect1_dropShadow" result="shape"/></filter></defs><g filter="url(#master_svg0_25_1343)"><path d="M16.790860000000002,8.000000447035L66.40809999999999,8.000000447035C69.0428,8.000000447035,71.1986,10.15535,71.1986,12.7905L71.1986,49.0625C71.1986,51.6973,69.0429,53.853,66.40809999999999,53.853L16.790860000000002,53.853C14.15577,53.853,12,51.6973,12,49.0625L12,12.7905C12,10.15535,14.15577,8,16.790860000000002,8.000000447035ZM24.975,34.189099999999996C21.41834,34.189099999999996,18.50845,37.0989,18.50845,40.6556L18.50845,41.3674C18.50845,42.9086,19.7694,44.1696,21.310290000000002,44.1696L38.8611,44.1696C40.4024,44.1696,41.6633,42.9086,41.6633,41.3674L41.6633,40.6556C41.6633,37.099000000000004,38.753,34.189099999999996,35.196799999999996,34.189099999999996L33.9604,34.189099999999996C32.8149,34.716300000000004,31.4935,35.017399999999995,30.0855,35.017399999999995C28.6783,35.017399999999995,27.3565,34.716300000000004,26.211,34.189099999999996L24.975,34.189099999999996ZM30.0855,17.72353C26.5032,17.72353,23.5989,20.6278,23.5989,24.2105C23.5989,27.7931,26.5032,30.6973,30.0855,30.6973C33.6685,30.6973,36.5728,27.793,36.5728,24.2105C36.572900000000004,20.6278,33.6685,17.72353,30.0855,17.72353ZM49.3418,34.119299999999996C48.6597,34.119299999999996,48.1016,34.6774,48.1016,35.3598L48.1016,36.1866C48.1016,36.868700000000004,48.6597,37.4268,49.3418,37.4268L63.5141,37.4268C64.19659999999999,37.4268,64.75460000000001,36.868700000000004,64.75460000000001,36.1866L64.75460000000001,35.3598C64.75460000000001,34.6773,64.1965,34.119299999999996,63.5141,34.119299999999996L49.3418,34.119299999999996ZM49.3418,27.5321C48.6597,27.5321,48.1016,28.0905,48.1016,28.7726L48.1016,29.5995C48.1016,30.2819,48.6597,30.8399,49.3418,30.8399L63.5141,30.8399C64.19659999999999,30.8399,64.75460000000001,30.2819,64.75460000000001,29.5995L64.75460000000001,28.7726C64.75460000000001,28.0905,64.1965,27.5321,63.5141,27.5321L49.3418,27.5321ZM49.3418,20.9453C48.6597,20.9453,48.1016,21.5034,48.1016,22.1858L48.1016,23.0123C48.1016,23.694699999999997,48.6597,24.2527,49.3418,24.2527L63.5141,24.2527C64.19659999999999,24.2527,64.75460000000001,23.694699999999997,64.75460000000001,23.0123L64.75460000000001,22.1858C64.75460000000001,21.5033,64.1965,20.9453,63.5141,20.9453L49.3418,20.9453Z" fill="#FFFFFF" fill-opacity="1"/></g></svg>