<svg xmlns="http://www.w3.org/2000/svg" xmlns:xlink="http://www.w3.org/1999/xlink" fill="none" version="1.1" width="83.99999237060547" height="69.61390686035156" viewBox="0 0 83.99999237060547 69.61390686035156"><defs><filter id="master_svg0_25_9618" filterUnits="objectBoundingBox" color-interpolation-filters="sRGB" x="-12" y="-8" width="83.99999237060547" height="69.61390686035156"><feFlood flood-opacity="0" result="BackgroundImageFix"/><feColorMatrix in="SourceAlpha" type="matrix" values="0 0 0 0 0 0 0 0 0 0 0 0 0 0 0 0 0 0 127 0"/><feOffset dy="4" dx="0"/><feGaussianBlur stdDeviation="3"/><feColorMatrix type="matrix" values="0 0 0 0 0 0 0 0 0 0 0 0 0 0 0 0 0 0 0.15000000596046448 0"/><feBlend mode="normal" in2="BackgroundImageFix" result="effect1_dropShadow"/><feBlend mode="normal" in="SourceGraphic" in2="effect1_dropShadow" result="shape"/></filter></defs><g filter="url(#master_svg0_25_9618)"><path d="M15.52418,8L64.3726,8C66.3185,8,67.904,9.58552,67.8968,11.52418L67.8968,36.2382C69.6463,39.277100000000004,69.6212,43.0858,67.8215,46.0995C67.7173,46.5936,67.5087,47.0504,67.2202,47.4455L72,52.2953L70.70150000000001,53.6139L65.77199999999999,48.6079C65.69409999999999,48.6419,65.6147,48.6732,65.53399999999999,48.7016C63.8285,50.0538,61.7693,50.728,59.7102,50.728C57.7505,50.728,55.7938,50.1192,54.1399,48.8993L15.52418,48.8993C13.58552,48.8993,12,47.3137,12,45.3751L12,11.52418C12,9.58552,13.58552,8,15.52418,8ZM58.0744,31.6174C60.2545,31.2327,62.5423,31.6234,64.5034,32.7893C65.0701,31.3952,65.382,29.8704,65.3812,28.2727C65.3844,21.6513,60.0176,16.28179,53.3961,16.28179C46.7746,16.28179,41.4078,21.6513,41.411,28.2727C41.4092,32.018299999999996,43.125699999999995,35.363299999999995,45.8156,37.5623C45.8641,36.183499999999995,46.1271,34.8548,46.7081,33.7573L46.9243,33.7573C48.1783,31.4511,50.4485,29.8656,53.079,29.8656L53.5691,29.8656C55.2684,29.8656,56.8323,30.5273,58.0744,31.6174ZM40.0416,14.94739L16.83538,14.94739L16.83538,20.2805L40.0416,20.2805L40.0416,14.94739ZM53.1799,29.0728C50.9818,29.0728,49.3386,27.2063,49.3386,25.0081L49.3386,22.730800000000002L47.6161,21.5272L50.3908,19.884C51.1115,19.1705,52.0988,18.7598,53.1799,18.7598L53.4682,18.7598C55.6663,18.7598,57.6265,20.511,57.6265,22.7091L57.6265,25.0081C57.6265,27.2063,55.6663,29.0728,53.4682,29.0728L53.1799,29.0728ZM28.4385,25.5416L16.83538,25.5416L16.83538,30.8747L28.4385,30.8747L28.4385,25.5416ZM54.3019,46.5944C57.288,49.6224,62.141,49.6224,65.1228,46.5944C68.1045,43.5664,68.1045,38.6381,65.11840000000001,35.605599999999995C63.6275,34.0916,61.6688,33.3324,59.7102,33.3324C57.7515,33.3324,55.7928,34.0916,54.3019,35.605599999999995C51.3202,38.6381,51.3158,43.5664,54.3019,46.5944ZM28.4385,36.1357L16.83538,36.1357L16.83538,41.3968L28.4385,41.3968L28.4385,36.1357Z" fill-rule="evenodd" fill="#FFFFFF" fill-opacity="1"/></g></svg>