<svg xmlns="http://www.w3.org/2000/svg" xmlns:xlink="http://www.w3.org/1999/xlink" fill="none" version="1.1" width="70.24608993530273" height="72.37144088745117" viewBox="0 0 70.24608993530273 72.37144088745117"><defs><filter id="master_svg0_25_9324" filterUnits="objectBoundingBox" color-interpolation-filters="sRGB" x="-12" y="-8" width="70.24608993530273" height="72.37144088745117"><feFlood flood-opacity="0" result="BackgroundImageFix"/><feColorMatrix in="SourceAlpha" type="matrix" values="0 0 0 0 0 0 0 0 0 0 0 0 0 0 0 0 0 0 127 0"/><feOffset dy="4" dx="0"/><feGaussianBlur stdDeviation="3"/><feColorMatrix type="matrix" values="0 0 0 0 0 0 0 0 0 0 0 0 0 0 0 0 0 0 0.15000000596046448 0"/><feBlend mode="normal" in2="BackgroundImageFix" result="effect1_dropShadow"/><feBlend mode="normal" in="SourceGraphic" in2="effect1_dropShadow" result="shape"/></filter></defs><g filter="url(#master_svg0_25_9324)"><path d="M18.775,35.97C20.4,35.97,21.7225,37.29,21.7225,38.917500000000004L21.7225,53.4225C21.72329,55.0509,20.40342,56.3714,18.775,56.3714C17.14657,56.3714,15.8267,55.0509,15.8275,53.4225L15.8275,38.92C15.8275,37.292500000000004,17.1475,35.9725,18.775,35.9725L18.775,35.97ZM25.75,35.97C27.375,35.97,28.695,37.29,28.695,38.917500000000004L28.695,53.4225C28.695,55.0504,27.3754,56.37,25.747500000000002,56.37C24.1196,56.37,22.8,55.0504,22.8,53.4225L22.8,38.92C22.8,37.292500000000004,24.119999999999997,35.9725,25.75,35.9725L25.75,35.97ZM55.7125,23.192500000000003C57.5025,26.555,58.7525,32.95,58.045,36.957499999999996C57.34,40.965,56.045,41.94,53.22,41.94L43.754999999999995,41.94L42.875,53.915C42.425,55.5525,41.435,56.37,39.9,56.37C38.3675,56.37,37.4625,55.5525,37.185,53.915L38.120000000000005,39.1575C38.5275,37.33,39.370000000000005,36.415,40.65,36.415L50,36.415C50.17,33.665,49.8925,31.4975,49.1675,29.91L49.135,29.8425C50.769,29.0278,52.2688,27.968,53.5825,26.7C54.5366,25.7791,54.5634,24.2591,53.6425,23.305C52.7215,22.3509,51.2016,22.3241,50.2475,23.244999999999997C47.6,25.8025,43.91,27.185,39.11,27.3425L35.9375,23.6525L40.1425,22.79L42.567499999999995,25.715L49.7325,21.125C52.525,20.2625,54.5175,20.95,55.7125,23.192500000000003ZM15.14,43.775L15.14,53.575C15.14,54.295,15.35,54.965,15.7075,55.5275L13.4275,55.5275L13.4275,43.7775L15.14,43.7775L15.14,43.775ZM31.115,43.775L31.115,55.5275L28.815,55.5275C29.1,55.0775,29.29,54.56,29.3575,54.0025L29.3825,53.5775L29.38,43.7775L31.1175,43.7775L31.115,43.775ZM58.045,43.4925L58.045,55.2425L44.99,55.2425L44.99,43.4925L58.045,43.4925ZM29.72,30.6775C30.075,31.1225,30.5925,31.4425,31.2,31.5425C31.6175,31.61,32.0325,31.675,32.445,31.7325C32.465,32.32,32.475,32.932500000000005,32.475,33.57C32.475,39.2125,32.254999999999995,42.1175,31.815,42.285C30.9825,43.24,30.1725,43.3675,29.3825,42.67L29.3825,38.7625C29.3825,38.0975,29.2025,37.475,28.89,36.9375C28.9467,36.9497,29.0045,36.9564,29.0625,36.957499999999996C29.4375,36.965,29.755,36.81,29.7725,36.6125L29.84,35.585L29.8825,34.61C29.8925,34.295,29.8975,33.985,29.8975,33.685L29.8875,32.815L29.8525,31.995L29.7875,31.225L29.7175,30.675L29.72,30.6775ZM27.4575,20.060000000000002C28.8125,20.545,29.8925,21.57,30.6975,23.14L33.5975,22.47L33.4375,21.765L38.1125,20.6875L38.557500000000005,22.6075L33.8825,23.6875L33.735,23.055L30.96,23.692500000000003C31.35,24.58,31.665,25.615,31.905,26.7975C30.7246,26.6376,29.6062,27.3694,29.28,28.515L29.255,28.6225L29.255,28.62C29.1212,28.2184,28.9452,27.832,28.73,27.4675C28.63,27.305,28.335,27.205,28.0275,27.2175L27.872500000000002,27.235C27.515,27.295,27.314999999999998,27.4975,27.43,27.685C27.8625,28.3975,28.1675,29.3725,28.3475,30.6075L28.4325,31.3075L28.4925,32.057500000000005C28.5075,32.315,28.5175,32.582499999999996,28.525,32.8575L28.535,33.7125C28.535,33.86,28.535,34.0075,28.53,34.16L28.5,35.09L28.4475,36.072500000000005L28.43,36.3125C27.545,35.3442,26.207,34.927800000000005,24.928800000000003,35.223C23.6507,35.5182,22.630699999999997,36.4792,22.259999999999998,37.7375C21.61721,35.5507,19.14358,34.4881,17.115000000000002,35.5275L17.095,35.09L17.0675,34.16L17.0625,33.28L17.085,32.4525L17.105,32.057500000000005L17.165,31.3075L17.25,30.6075C17.43,29.3725,17.735,28.3975,18.1675,27.6875C18.2625,27.53,18.1425,27.3625,17.89,27.275L17.725,27.235L17.57,27.2175C17.2625,27.205,16.965,27.305,16.8675,27.4675C16.3925,28.25,16.065,29.3075,15.8775,30.6375L15.807500000000001,31.225L15.745000000000001,31.995L15.7075,32.815L15.7025,33.0275L15.7,33.245000000000005L15.7,34.1425L15.73,35.0925L15.7425,35.3375L15.754999999999999,35.585L15.825,36.61L15.825,36.635000000000005C15.44852,37.1577,15.218119999999999,37.7712,15.1575,38.4125L15.14,38.7625L15.14,42.35L15.0625,42.425C14.235,43.1475,13.235,43.435,12.1875,41.675C12.0649618,39.5514,12.00243679,37.4247,12,35.2975L12,33.57C12,26.1475,13.67,21.645,17.009999999999998,20.060000000000002L27.46,20.060000000000002L27.4575,20.060000000000002ZM48.27,30.345L48.4475,34.025L47.2125,36.4125L45.9475,34.025L46.2775,31.01C46.9625,30.8125,47.6275,30.5925,48.27,30.345ZM53.21,23.72C53.902,24.4355,53.8818,25.5768,53.165,26.2675C48.2475,31.0175,40.9075,32.5325,31.2975,30.95C30.3165,30.7885,29.6522,29.8622,29.8137,28.8812C29.9753,27.9003,30.9015,27.236,31.8825,27.3975C40.4675,28.8125,46.6775,27.5275,50.665,23.677500000000002C51.3802,22.9872,52.5196,23.0074,53.21,23.7225L53.21,23.72ZM37.685,20.9925L37.1375,21.1175L37.3725,22.119999999999997L36.7875,22.255000000000003L36.555,21.25L36.08,21.36L36.3125,22.3675L35.7275,22.502499999999998L35.495000000000005,21.494999999999997L34.995000000000005,21.61L35.225,22.615000000000002L34.64,22.75L34.4075,21.744999999999997L33.957499999999996,21.8525L34.3125,23.3825L38.0375,22.5225L37.685,20.9925ZM39.1525,20.6725L39.485,22.11L38.81,22.265L38.4775,20.83L39.1525,20.6725ZM47.6025,9.915C50.5848,9.915,53.0025,12.33266,53.0025,15.315000000000001C53.0025,18.2973,50.5848,20.715,47.6025,20.715C44.6202,20.715,42.2025,18.2973,42.2025,15.315000000000001C42.2025,12.33266,44.6202,9.915,47.6025,9.915ZM22.055,8C25.037300000000002,7.999999552965,27.455,10.41766,27.455,13.4C27.455,16.38234,25.037300000000002,18.8,22.055,18.8C19.07266,18.8,16.655,16.38234,16.655,13.4C16.655,10.41766,19.07266,8.000000447035,22.055,8Z" fill="#FFFFFF" fill-opacity="1"/></g></svg>