<svg xmlns="http://www.w3.org/2000/svg" xmlns:xlink="http://www.w3.org/1999/xlink" fill="none" version="1.1" width="78.00000381469727" height="78.01301574707031" viewBox="0 0 78.00000381469727 78.01301574707031"><defs><filter id="master_svg0_25_9569" filterUnits="objectBoundingBox" color-interpolation-filters="sRGB" x="-12" y="-8" width="78.00000381469727" height="78.01301574707031"><feFlood flood-opacity="0" result="BackgroundImageFix"/><feColorMatrix in="SourceAlpha" type="matrix" values="0 0 0 0 0 0 0 0 0 0 0 0 0 0 0 0 0 0 127 0"/><feOffset dy="4" dx="0"/><feGaussianBlur stdDeviation="3"/><feColorMatrix type="matrix" values="0 0 0 0 0 0 0 0 0 0 0 0 0 0 0 0 0 0 0.15000000596046448 0"/><feBlend mode="normal" in2="BackgroundImageFix" result="effect1_dropShadow"/><feBlend mode="normal" in="SourceGraphic" in2="effect1_dropShadow" result="shape"/></filter></defs><g filter="url(#master_svg0_25_9569)"><path d="M26.5492,17.09001C26.5492,19.4585,25.0462,21.371499999999997,23.1917,21.371499999999997C21.33727,21.371499999999997,19.8342,19.451999999999998,19.8342,17.09001L19.8342,12.28148C19.8342,9.913,21.33727,8,23.1917,8C25.0462,8,26.5492,9.91951,26.5492,12.28148L26.5492,17.09001ZM55.2768,17.09001C55.2768,19.4585,53.7737,21.371499999999997,51.9193,21.371499999999997C50.0648,21.371499999999997,48.5618,19.451999999999998,48.5552,17.09001L48.5552,12.28148C48.5552,9.913,49.9347,8,51.7891,8C53.6436,8,55.2768,9.91951,55.2768,12.28148L55.2768,17.09001ZM61.9226,13.739830000000001Q63.0784,14.68646,63.0784,17.04447L63.0915,28.8088L12.00651316,28.8088Q12.00000645359,22.2434,12.00000645359,17.03145Q12.214731,13.12086,15.79348,13.12086L17.67394,13.12086L17.67394,19.927Q17.71949,22.9071,20.510910000000003,22.913600000000002Q23.302300000000002,22.920099999999998,26.1588,22.913600000000002Q27.4952,22.944000000000003,28.2064,22.292299999999997Q29.0153,21.5509,29.0153,19.927L29.0153,13.12086L46.2583,13.12086L46.2583,19.992Q46.1918,21.4146,46.8704,22.142899999999997Q47.5854,22.9104,49.1278,22.9071Q52.1405,22.9006,54.8213,22.9071Q57.5672,22.8811,57.5737,19.9595Q57.5802,17.04447,57.5737,13.12086L59.4281,13.12086Q61.0243,13.0042,61.9226,13.739830000000001ZM63.098,39.1286C60.8726,37.534400000000005,58.1788,36.5974,55.2768,36.5974C47.6768,36.5974,41.4889,43.0131,41.4889,50.8929C41.4889,53.7884,42.3347,56.4887,43.7727,58.7466L15.79998,58.7466Q12,58.7076,12,54.823L12,31.7173L63.0915,31.7173L63.098,39.1286ZM18.71503,41.959L35.8279,41.959L35.8279,38.3868L18.71503,38.3868L18.71503,41.959ZM44.5536,50.8929C44.5536,44.7635,49.3621,39.7727,55.2768,39.7727C61.1915,39.7727,66,44.7635,66,50.8929C66,57.0223,61.1915,62.013,55.2768,62.013C49.3621,62.013,44.5536,57.0223,44.5536,50.8929ZM61.8054,49.3433L60.4464,47.8999L55.9816,43.1579C55.7684,42.9242,55.4163,42.9211,55.1995,43.151C54.9826,43.3808,54.9847,43.7547,55.2043,43.9817L56.1755,45.0132L50.3517,51.1985C49.4308,52.18,49.2873,53.7142,50.0086,54.8689L48.8074,56.1446C48.5927,56.3718,48.5927,56.7411,48.8074,56.9683C49.0214,57.1964,49.3691,57.1964,49.583,56.9683L50.7841,55.6926C51.8713,56.4587,53.3159,56.3063,54.24,55.3282L60.0586,49.1373L61.0298,50.1688C61.2435,50.402,61.5955,50.4043,61.8119,50.174C62.0283,49.9436,62.0254,49.5697,61.8054,49.3433ZM60.8342,46.6625C61.0488,46.8922,61.3981,46.8936,61.6143,46.6655C61.8305,46.4374,61.8315,46.0663,61.6166,45.8369L59.2813,43.3639C59.0647,43.1364,58.7156,43.1384,58.5014,43.3684C58.2872,43.5984,58.2891,43.9692,58.5057,44.1967L60.8342,46.6625ZM57.0718,49.6436C56.8721,49.6461,56.68,49.5674,56.5397,49.4255L55.4942,48.3771C55.2362,48.0838,55.2498,47.6411,55.5253,47.3642C55.8009,47.0872,56.2442,47.0707,56.5397,47.3263L57.5899,48.3771C57.8806,48.6663,57.8806,49.1363,57.5899,49.4255C57.453,49.564,57.2666,49.6424,57.0718,49.6436ZM18.71503,50.8929L35.8279,50.8929L35.8279,47.3206L18.71503,47.3206L18.71503,50.8929ZM54.0652,51.9274C54.2005,52.0643,54.385,52.1417,54.5776,52.1422C54.7718,52.1429,54.9582,52.0655,55.0946,51.9274C55.3809,51.6425,55.3809,51.1794,55.0946,50.8945L54.0652,49.8592C53.779,49.5725,53.3142,49.5716,53.027,49.8573C52.7397,50.143,52.7385,50.6073,53.0243,50.8945L54.0652,51.9274ZM52.0793,54.6406C51.8852,54.6413,51.6989,54.5635,51.5625,54.4248L50.5266,53.3981C50.2406,53.1108,50.2406,52.645,50.5266,52.3577C50.8127,52.0703,51.2765,52.0703,51.5625,52.3577L52.5961,53.3981C52.8823,53.6844,52.8823,54.1499,52.5961,54.4362C52.4578,54.5708,52.2718,54.6444,52.0793,54.6406Z" fill-rule="evenodd" fill="#FFFFFF" fill-opacity="1"/></g></svg>